<mxfile host="app.diagrams.net" modified="2024-07-18T16:50:52.096Z" agent="Mozilla/5.0 (Windows NT 10.0; Win64; x64) AppleWebKit/537.36 (KHTML, like Gecko) Chrome/126.0.0.0 Safari/537.36" etag="bbb22MeWv5SzdCRm22N2" version="24.7.1" type="device">
  <diagram name="PÃ¡gina-1" id="5bzafT70D_S-KEg0Smrc">
    <mxGraphModel dx="1947" dy="629" grid="1" gridSize="10" guides="1" tooltips="1" connect="1" arrows="1" fold="1" page="1" pageScale="1" pageWidth="827" pageHeight="1169" math="0" shadow="0">
      <root>
        <mxCell id="0" />
        <mxCell id="1" parent="0" />
        <mxCell id="bZCJKxjuwGwM8Rb-hnu5-9" style="edgeStyle=orthogonalEdgeStyle;rounded=0;orthogonalLoop=1;jettySize=auto;html=1;entryX=0;entryY=0.5;entryDx=0;entryDy=0;" edge="1" parent="1" source="bZCJKxjuwGwM8Rb-hnu5-1" target="bZCJKxjuwGwM8Rb-hnu5-3">
          <mxGeometry relative="1" as="geometry" />
        </mxCell>
        <mxCell id="bZCJKxjuwGwM8Rb-hnu5-1" value="PLATO" style="rounded=0;whiteSpace=wrap;html=1;" vertex="1" parent="1">
          <mxGeometry x="130" y="150" width="120" height="60" as="geometry" />
        </mxCell>
        <mxCell id="bZCJKxjuwGwM8Rb-hnu5-2" value="CATEGORIA" style="rounded=0;whiteSpace=wrap;html=1;" vertex="1" parent="1">
          <mxGeometry x="640" y="160" width="120" height="60" as="geometry" />
        </mxCell>
        <mxCell id="bZCJKxjuwGwM8Rb-hnu5-10" style="edgeStyle=orthogonalEdgeStyle;rounded=0;orthogonalLoop=1;jettySize=auto;html=1;entryX=0;entryY=0.5;entryDx=0;entryDy=0;" edge="1" parent="1" source="bZCJKxjuwGwM8Rb-hnu5-3" target="bZCJKxjuwGwM8Rb-hnu5-2">
          <mxGeometry relative="1" as="geometry" />
        </mxCell>
        <mxCell id="bZCJKxjuwGwM8Rb-hnu5-3" value="PERTENECE" style="rhombus;whiteSpace=wrap;html=1;" vertex="1" parent="1">
          <mxGeometry x="400" y="150" width="110" height="80" as="geometry" />
        </mxCell>
        <mxCell id="bZCJKxjuwGwM8Rb-hnu5-7" style="edgeStyle=orthogonalEdgeStyle;rounded=0;orthogonalLoop=1;jettySize=auto;html=1;entryX=0.5;entryY=1;entryDx=0;entryDy=0;" edge="1" parent="1" source="bZCJKxjuwGwM8Rb-hnu5-4" target="bZCJKxjuwGwM8Rb-hnu5-1">
          <mxGeometry relative="1" as="geometry" />
        </mxCell>
        <mxCell id="bZCJKxjuwGwM8Rb-hnu5-8" style="edgeStyle=orthogonalEdgeStyle;rounded=0;orthogonalLoop=1;jettySize=auto;html=1;entryX=0.5;entryY=0;entryDx=0;entryDy=0;" edge="1" parent="1" source="bZCJKxjuwGwM8Rb-hnu5-4" target="bZCJKxjuwGwM8Rb-hnu5-6">
          <mxGeometry relative="1" as="geometry" />
        </mxCell>
        <mxCell id="bZCJKxjuwGwM8Rb-hnu5-11" style="edgeStyle=orthogonalEdgeStyle;rounded=0;orthogonalLoop=1;jettySize=auto;html=1;" edge="1" parent="1" source="bZCJKxjuwGwM8Rb-hnu5-4" target="bZCJKxjuwGwM8Rb-hnu5-5">
          <mxGeometry relative="1" as="geometry" />
        </mxCell>
        <mxCell id="bZCJKxjuwGwM8Rb-hnu5-4" value="UTILIZA" style="rhombus;whiteSpace=wrap;html=1;" vertex="1" parent="1">
          <mxGeometry x="135" y="280" width="110" height="80" as="geometry" />
        </mxCell>
        <mxCell id="bZCJKxjuwGwM8Rb-hnu5-5" value="CANTIDAD" style="ellipse;whiteSpace=wrap;html=1;" vertex="1" parent="1">
          <mxGeometry x="300" y="290" width="80" height="60" as="geometry" />
        </mxCell>
        <mxCell id="bZCJKxjuwGwM8Rb-hnu5-39" style="edgeStyle=orthogonalEdgeStyle;rounded=0;orthogonalLoop=1;jettySize=auto;html=1;entryX=0;entryY=0.5;entryDx=0;entryDy=0;" edge="1" parent="1" source="bZCJKxjuwGwM8Rb-hnu5-6" target="bZCJKxjuwGwM8Rb-hnu5-38">
          <mxGeometry relative="1" as="geometry" />
        </mxCell>
        <mxCell id="bZCJKxjuwGwM8Rb-hnu5-6" value="INGREDIENTES" style="rounded=0;whiteSpace=wrap;html=1;" vertex="1" parent="1">
          <mxGeometry x="130" y="420" width="120" height="60" as="geometry" />
        </mxCell>
        <mxCell id="bZCJKxjuwGwM8Rb-hnu5-27" style="edgeStyle=orthogonalEdgeStyle;rounded=0;orthogonalLoop=1;jettySize=auto;html=1;" edge="1" parent="1" source="bZCJKxjuwGwM8Rb-hnu5-12" target="bZCJKxjuwGwM8Rb-hnu5-2">
          <mxGeometry relative="1" as="geometry" />
        </mxCell>
        <mxCell id="bZCJKxjuwGwM8Rb-hnu5-12" value="NOMBRE" style="ellipse;whiteSpace=wrap;html=1;" vertex="1" parent="1">
          <mxGeometry x="710" y="70" width="90" height="50" as="geometry" />
        </mxCell>
        <mxCell id="bZCJKxjuwGwM8Rb-hnu5-24" style="edgeStyle=orthogonalEdgeStyle;rounded=0;orthogonalLoop=1;jettySize=auto;html=1;entryX=0.25;entryY=0;entryDx=0;entryDy=0;" edge="1" parent="1" source="bZCJKxjuwGwM8Rb-hnu5-13" target="bZCJKxjuwGwM8Rb-hnu5-1">
          <mxGeometry relative="1" as="geometry" />
        </mxCell>
        <mxCell id="bZCJKxjuwGwM8Rb-hnu5-13" value="NOMBRE" style="ellipse;whiteSpace=wrap;html=1;" vertex="1" parent="1">
          <mxGeometry x="110" y="60" width="90" height="40" as="geometry" />
        </mxCell>
        <mxCell id="bZCJKxjuwGwM8Rb-hnu5-25" style="edgeStyle=orthogonalEdgeStyle;rounded=0;orthogonalLoop=1;jettySize=auto;html=1;entryX=0;entryY=0.25;entryDx=0;entryDy=0;" edge="1" parent="1" source="bZCJKxjuwGwM8Rb-hnu5-14" target="bZCJKxjuwGwM8Rb-hnu5-1">
          <mxGeometry relative="1" as="geometry" />
        </mxCell>
        <mxCell id="bZCJKxjuwGwM8Rb-hnu5-14" value="NIVEL" style="ellipse;whiteSpace=wrap;html=1;" vertex="1" parent="1">
          <mxGeometry y="120" width="90" height="30" as="geometry" />
        </mxCell>
        <mxCell id="bZCJKxjuwGwM8Rb-hnu5-26" style="rounded=0;orthogonalLoop=1;jettySize=auto;html=1;entryX=0;entryY=1;entryDx=0;entryDy=0;" edge="1" parent="1" source="bZCJKxjuwGwM8Rb-hnu5-15" target="bZCJKxjuwGwM8Rb-hnu5-1">
          <mxGeometry relative="1" as="geometry" />
        </mxCell>
        <mxCell id="bZCJKxjuwGwM8Rb-hnu5-15" value="FOTO" style="ellipse;whiteSpace=wrap;html=1;" vertex="1" parent="1">
          <mxGeometry x="-10" y="180" width="90" height="40" as="geometry" />
        </mxCell>
        <mxCell id="bZCJKxjuwGwM8Rb-hnu5-28" style="edgeStyle=orthogonalEdgeStyle;rounded=0;orthogonalLoop=1;jettySize=auto;html=1;" edge="1" parent="1" source="bZCJKxjuwGwM8Rb-hnu5-16" target="bZCJKxjuwGwM8Rb-hnu5-2">
          <mxGeometry relative="1" as="geometry" />
        </mxCell>
        <mxCell id="bZCJKxjuwGwM8Rb-hnu5-16" value="ENCARGADO" style="ellipse;whiteSpace=wrap;html=1;" vertex="1" parent="1">
          <mxGeometry x="790" y="150" width="90" height="50" as="geometry" />
        </mxCell>
        <mxCell id="bZCJKxjuwGwM8Rb-hnu5-29" style="edgeStyle=orthogonalEdgeStyle;rounded=0;orthogonalLoop=1;jettySize=auto;html=1;entryX=0.75;entryY=1;entryDx=0;entryDy=0;" edge="1" parent="1" source="bZCJKxjuwGwM8Rb-hnu5-17" target="bZCJKxjuwGwM8Rb-hnu5-2">
          <mxGeometry relative="1" as="geometry" />
        </mxCell>
        <mxCell id="bZCJKxjuwGwM8Rb-hnu5-17" value="DESCRIPCION" style="ellipse;whiteSpace=wrap;html=1;" vertex="1" parent="1">
          <mxGeometry x="775" y="230" width="85" height="50" as="geometry" />
        </mxCell>
        <mxCell id="bZCJKxjuwGwM8Rb-hnu5-23" style="rounded=0;orthogonalLoop=1;jettySize=auto;html=1;entryX=0;entryY=0.75;entryDx=0;entryDy=0;" edge="1" parent="1" source="bZCJKxjuwGwM8Rb-hnu5-19" target="bZCJKxjuwGwM8Rb-hnu5-6">
          <mxGeometry relative="1" as="geometry" />
        </mxCell>
        <mxCell id="bZCJKxjuwGwM8Rb-hnu5-19" value="UNIDADES" style="ellipse;whiteSpace=wrap;html=1;" vertex="1" parent="1">
          <mxGeometry x="-5" y="475" width="100" height="50" as="geometry" />
        </mxCell>
        <mxCell id="bZCJKxjuwGwM8Rb-hnu5-22" style="rounded=0;orthogonalLoop=1;jettySize=auto;html=1;entryX=0;entryY=0.5;entryDx=0;entryDy=0;" edge="1" parent="1" source="bZCJKxjuwGwM8Rb-hnu5-20" target="bZCJKxjuwGwM8Rb-hnu5-6">
          <mxGeometry relative="1" as="geometry" />
        </mxCell>
        <mxCell id="bZCJKxjuwGwM8Rb-hnu5-20" value="NOMBRE" style="ellipse;whiteSpace=wrap;html=1;" vertex="1" parent="1">
          <mxGeometry x="5" y="410" width="80" height="50" as="geometry" />
        </mxCell>
        <mxCell id="bZCJKxjuwGwM8Rb-hnu5-32" style="edgeStyle=orthogonalEdgeStyle;rounded=0;orthogonalLoop=1;jettySize=auto;html=1;entryX=0;entryY=1;entryDx=0;entryDy=0;" edge="1" parent="1" source="bZCJKxjuwGwM8Rb-hnu5-31" target="bZCJKxjuwGwM8Rb-hnu5-1">
          <mxGeometry relative="1" as="geometry" />
        </mxCell>
        <mxCell id="bZCJKxjuwGwM8Rb-hnu5-31" value="PRECIO" style="ellipse;whiteSpace=wrap;html=1;" vertex="1" parent="1">
          <mxGeometry x="-5" y="240" width="95" height="40" as="geometry" />
        </mxCell>
        <mxCell id="bZCJKxjuwGwM8Rb-hnu5-33" value="N" style="text;html=1;align=center;verticalAlign=middle;whiteSpace=wrap;rounded=0;" vertex="1" parent="1">
          <mxGeometry x="170" y="390" width="60" height="30" as="geometry" />
        </mxCell>
        <mxCell id="bZCJKxjuwGwM8Rb-hnu5-34" value="N" style="text;html=1;align=center;verticalAlign=middle;whiteSpace=wrap;rounded=0;" vertex="1" parent="1">
          <mxGeometry x="170" y="240" width="60" height="30" as="geometry" />
        </mxCell>
        <mxCell id="bZCJKxjuwGwM8Rb-hnu5-35" value="N" style="text;html=1;align=center;verticalAlign=middle;whiteSpace=wrap;rounded=0;" vertex="1" parent="1">
          <mxGeometry x="240" y="150" width="60" height="30" as="geometry" />
        </mxCell>
        <mxCell id="bZCJKxjuwGwM8Rb-hnu5-36" value="1" style="text;html=1;align=center;verticalAlign=middle;whiteSpace=wrap;rounded=0;" vertex="1" parent="1">
          <mxGeometry x="570" y="160" width="60" height="30" as="geometry" />
        </mxCell>
        <mxCell id="bZCJKxjuwGwM8Rb-hnu5-37" value="ALMACEN" style="rounded=0;whiteSpace=wrap;html=1;" vertex="1" parent="1">
          <mxGeometry x="530" y="430" width="120" height="60" as="geometry" />
        </mxCell>
        <mxCell id="bZCJKxjuwGwM8Rb-hnu5-41" style="edgeStyle=orthogonalEdgeStyle;rounded=0;orthogonalLoop=1;jettySize=auto;html=1;entryX=0;entryY=0.25;entryDx=0;entryDy=0;" edge="1" parent="1" source="bZCJKxjuwGwM8Rb-hnu5-38" target="bZCJKxjuwGwM8Rb-hnu5-37">
          <mxGeometry relative="1" as="geometry" />
        </mxCell>
        <mxCell id="bZCJKxjuwGwM8Rb-hnu5-38" value="EXISTEN" style="rhombus;whiteSpace=wrap;html=1;" vertex="1" parent="1">
          <mxGeometry x="350" y="410" width="80" height="80" as="geometry" />
        </mxCell>
        <mxCell id="bZCJKxjuwGwM8Rb-hnu5-42" value="N" style="text;html=1;align=center;verticalAlign=middle;whiteSpace=wrap;rounded=0;" vertex="1" parent="1">
          <mxGeometry x="240" y="450" width="60" height="30" as="geometry" />
        </mxCell>
        <mxCell id="bZCJKxjuwGwM8Rb-hnu5-43" value="N" style="text;html=1;align=center;verticalAlign=middle;whiteSpace=wrap;rounded=0;" vertex="1" parent="1">
          <mxGeometry x="480" y="450" width="60" height="30" as="geometry" />
        </mxCell>
      </root>
    </mxGraphModel>
  </diagram>
</mxfile>
